<svg xmlns="http://www.w3.org/2000/svg" viewBox="0 0 800 800" role="img" aria-label="Ilustrasi kelas digital WebKelas">
  <defs><linearGradient id="bg" x1="0" y1="0" x2="1" y2="1"><stop stop-color="#0e7490"/><stop offset=".55" stop-color="#2563eb"/><stop offset="1" stop-color="#312e81"/></linearGradient><linearGradient id="board" x1="0" y1="0" x2="0" y2="1"><stop stop-color="#164e63"/><stop offset="1" stop-color="#083344"/></linearGradient></defs>
  <rect width="800" height="800" fill="url(#bg)"/><circle cx="110" cy="115" r="180" fill="#67e8f9" opacity=".16"/><circle cx="700" cy="670" r="250" fill="#a5b4fc" opacity=".18"/><path d="M0 610 250 505 800 580v220H0Z" fill="#0f172a" opacity=".55"/>
  <rect x="110" y="120" width="580" height="310" rx="24" fill="url(#board)" stroke="#bae6fd" stroke-width="12"/><path d="M165 200h210M165 250h330M165 300h250" stroke="#a5f3fc" stroke-width="18" stroke-linecap="round" opacity=".88"/><path d="m565 210 70 70-70 70M495 280h136" fill="none" stroke="#fbbf24" stroke-width="18" stroke-linecap="round" stroke-linejoin="round"/>
  <path d="M250 430v110M550 430v110" stroke="#e0f2fe" stroke-width="22"/><path d="M175 545h450" stroke="#e0f2fe" stroke-width="28" stroke-linecap="round"/><g fill="#f8fafc"><circle cx="205" cy="595" r="34"/><circle cx="395" cy="570" r="38"/><circle cx="590" cy="605" r="33"/></g><g fill="#93c5fd"><path d="M145 700c8-62 112-62 120 0Z"/><path d="M325 700c9-70 132-70 140 0Z"/><path d="M535 700c8-60 102-60 110 0Z"/></g><path d="M85 720h630" stroke="#e0f2fe" stroke-width="14" stroke-linecap="round" opacity=".65"/>
</svg>
