<svg xmlns="http://www.w3.org/2000/svg" viewBox="0 0 192 192">
  <defs><linearGradient id="blue" x1="20" y1="12" x2="172" y2="180" gradientUnits="userSpaceOnUse"><stop stop-color="#3b82f6"/><stop offset="1" stop-color="#1d4ed8"/></linearGradient></defs>
  <rect width="192" height="192" rx="48" fill="url(#blue)"/>
  <path d="M39 55c19-7 38-4 57 10 19-14 38-17 57-10v78c-19-7-38-4-57 10-19-14-38-17-57-10V55Z" fill="none" stroke="#fff" stroke-width="12" stroke-linejoin="round"/>
  <path d="M96 65v78" stroke="#bfdbfe" stroke-width="8" stroke-linecap="round"/>
  <circle cx="144" cy="49" r="18" fill="#fbbf24"/>
  <path d="m144 38 3 9.2 9.6.3-7.7 5.9 2.8 9.3-7.7-5.6-7.8 5.6 2.9-9.3-7.8-5.9 9.6-.3 3-9.2Z" fill="#fff"/>
</svg>
